HIERARCHY
ROOT Hips
{
	OFFSET -14.64140 90.27770 -84.91600
	CHANNELS 6 Xposition Yposition Zposition Zrotation Xrotation Yrotation
	JOINT Spine
	{
		OFFSET 0.00000 13.20850 -1.60436
		CHANNELS 3 Zrotation Xrotation Yrotation
		JOINT Spine1
		{
			OFFSET 0.00000 8.61716 0.00000
			CHANNELS 3 Zrotation Xrotation Yrotation
			JOINT Spine2
			{
				OFFSET 0.00000 8.61717 0.00000
				CHANNELS 3 Zrotation Xrotation Yrotation
				JOINT Spine3
				{
					OFFSET 0.00000 8.61717 0.00000
					CHANNELS 3 Zrotation Xrotation Yrotation
					JOINT Neck
					{
						OFFSET 0.00000 11.07920 1.10792
						CHANNELS 3 Zrotation Xrotation Yrotation
						JOINT Neck1
						{
							OFFSET 0.00000 7.08032 0.00000
							CHANNELS 3 Zrotation Xrotation Yrotation
							JOINT Head
							{
								OFFSET 0.00000 7.08031 0.00000
								CHANNELS 3 Zrotation Xrotation Yrotation
								End site
								{
									OFFSET 0.00000 0.00000 0.00000
								}
							}
						}
					}
					JOINT RightShoulder
					{
						OFFSET -0.01000 7.91373 5.19711
						CHANNELS 3 Zrotation Xrotation Yrotation
						JOINT RightArm
						{
							OFFSET -18.41580 0.00000 0.00000
							CHANNELS 3 Zrotation Xrotation Yrotation
							JOINT RightForeArm
							{
								OFFSET -29.11090 0.00000 0.00000
								CHANNELS 3 Zrotation Xrotation Yrotation
								JOINT RightHand
								{
									OFFSET -24.65040 0.00000 0.00000
									CHANNELS 3 Zrotation Xrotation Yrotation
									JOINT RightHandThumb1
									{
										OFFSET -5.35114 -0.85590 3.97906
										CHANNELS 3 Zrotation Xrotation Yrotation
										JOINT RightHandThumb2
										{
											OFFSET -4.52789 0.00000 0.00000
											CHANNELS 3 Zrotation Xrotation Yrotation
											JOINT RightHandThumb3
											{
												OFFSET -2.46976 0.00000 0.00000
												CHANNELS 3 Zrotation Xrotation Yrotation
												End site
												{
													OFFSET 0.00000 0.00000 0.00000
												}
											}
										}
									}
									JOINT RightHandIndex1
									{
										OFFSET -14.26970 0.00000 2.88139
										CHANNELS 3 Zrotation Xrotation Yrotation
										JOINT RightHandIndex2
										{
											OFFSET -5.48836 0.00000 0.00000
											CHANNELS 3 Zrotation Xrotation Yrotation
											JOINT RightHandIndex3
											{
												OFFSET -3.01859 0.00000 0.00000
												CHANNELS 3 Zrotation Xrotation Yrotation
												End site
												{
													OFFSET 0.00000 0.00000 0.00000
												}
											}
										}
									}
									JOINT RightHandMiddle1
									{
										OFFSET -14.26970 0.00000 -0.09147
										CHANNELS 3 Zrotation Xrotation Yrotation
										JOINT RightHandMiddle2
										{
											OFFSET -6.17441 0.00000 0.00000
											CHANNELS 3 Zrotation Xrotation Yrotation
											JOINT RightHandMiddle3
											{
												OFFSET -3.56743 0.00000 0.00000
												CHANNELS 3 Zrotation Xrotation Yrotation
												End site
												{
													OFFSET 0.00000 0.00000 0.00000
												}
											}
										}
									}
									JOINT RightHandRing1
									{
										OFFSET -12.69180 0.00000 -3.06433
										CHANNELS 3 Zrotation Xrotation Yrotation
										JOINT RightHandRing2
										{
											OFFSET -5.62556 0.00000 0.00000
											CHANNELS 3 Zrotation Xrotation Yrotation
											JOINT RightHandRing3
											{
												OFFSET -3.56744 0.00000 0.00000
												CHANNELS 3 Zrotation Xrotation Yrotation
												End site
												{
													OFFSET 0.00000 0.00000 0.00000
												}
											}
										}
									}
									JOINT RightHandPinky1
									{
										OFFSET -11.11390 0.00000 -6.03719
										CHANNELS 3 Zrotation Xrotation Yrotation
										JOINT RightHandPinky2
										{
											OFFSET -4.52789 0.00000 0.00000
											CHANNELS 3 Zrotation Xrotation Yrotation
											JOINT RightHandPinky3
											{
												OFFSET -2.46976 0.00000 0.00000
												CHANNELS 3 Zrotation Xrotation Yrotation
												End site
												{
													OFFSET 0.00000 0.00000 0.00000
												}
											}
										}
									}
								}
							}
						}
					}
					JOINT LeftShoulder
					{
						OFFSET 0.01000 7.91373 5.19711
						CHANNELS 3 Zrotation Xrotation Yrotation
						JOINT LeftArm
						{
							OFFSET 18.41580 0.00000 0.00000
							CHANNELS 3 Zrotation Xrotation Yrotation
							JOINT LeftForeArm
							{
								OFFSET 29.11090 0.00000 0.00000
								CHANNELS 3 Zrotation Xrotation Yrotation
								JOINT LeftHand
								{
									OFFSET 24.65040 0.00000 0.00000
									CHANNELS 3 Zrotation Xrotation Yrotation
									JOINT LeftHandThumb1
									{
										OFFSET 5.35114 -0.85590 3.97906
										CHANNELS 3 Zrotation Xrotation Yrotation
										JOINT LeftHandThumb2
										{
											OFFSET 4.52789 0.00000 0.00000
											CHANNELS 3 Zrotation Xrotation Yrotation
											JOINT LeftHandThumb3
											{
												OFFSET 2.46977 0.00000 0.00000
												CHANNELS 3 Zrotation Xrotation Yrotation
												End site
												{
													OFFSET 0.00000 0.00000 0.00000
												}
											}
										}
									}
									JOINT LeftHandIndex1
									{
										OFFSET 14.26970 0.00000 2.88139
										CHANNELS 3 Zrotation Xrotation Yrotation
										JOINT LeftHandIndex2
										{
											OFFSET 5.48836 0.00000 0.00000
											CHANNELS 3 Zrotation Xrotation Yrotation
											JOINT LeftHandIndex3
											{
												OFFSET 3.01859 0.00000 0.00000
												CHANNELS 3 Zrotation Xrotation Yrotation
												End site
												{
													OFFSET 0.00000 0.00000 0.00000
												}
											}
										}
									}
									JOINT LeftHandMiddle1
									{
										OFFSET 14.26970 0.00000 -0.09147
										CHANNELS 3 Zrotation Xrotation Yrotation
										JOINT LeftHandMiddle2
										{
											OFFSET 6.17440 0.00000 0.00000
											CHANNELS 3 Zrotation Xrotation Yrotation
											JOINT LeftHandMiddle3
											{
												OFFSET 3.56744 0.00000 0.00000
												CHANNELS 3 Zrotation Xrotation Yrotation
												End site
												{
													OFFSET 0.00000 0.00000 0.00000
												}
											}
										}
									}
									JOINT LeftHandRing1
									{
										OFFSET 12.69180 0.00000 -3.06433
										CHANNELS 3 Zrotation Xrotation Yrotation
										JOINT LeftHandRing2
										{
											OFFSET 5.62556 0.00000 0.00000
											CHANNELS 3 Zrotation Xrotation Yrotation
											JOINT LeftHandRing3
											{
												OFFSET 3.56744 0.00000 0.00000
												CHANNELS 3 Zrotation Xrotation Yrotation
												End site
												{
													OFFSET 0.00000 0.00000 0.00000
												}
											}
										}
									}
									JOINT LeftHandPinky1
									{
										OFFSET 11.11390 0.00000 -6.03719
										CHANNELS 3 Zrotation Xrotation Yrotation
										JOINT LeftHandPinky2
										{
											OFFSET 4.52789 0.00000 0.00000
											CHANNELS 3 Zrotation Xrotation Yrotation
											JOINT LeftHandPinky3
											{
												OFFSET 2.46976 0.00000 0.00000
												CHANNELS 3 Zrotation Xrotation Yrotation
												End site
												{
													OFFSET 0.00000 0.00000 0.00000
												}
											}
										}
									}
								}
							}
						}
					}
					JOINT pCube4
					{
						OFFSET 0.00000 10.91090 1.10792
						CHANNELS 3 Zrotation Xrotation Yrotation
						End site
						{
							OFFSET 0.00000 0.00000 0.00000
						}
					}
				}
			}
		}
	}
	JOINT RightUpLeg
	{
		OFFSET -9.98441 0.00000 0.00000
		CHANNELS 3 Zrotation Xrotation Yrotation
		JOINT RightLeg
		{
			OFFSET 0.00000 -42.11790 0.00000
			CHANNELS 3 Zrotation Xrotation Yrotation
			JOINT RightFoot
			{
				OFFSET 0.00000 -45.00020 -0.00001
				CHANNELS 3 Zrotation Xrotation Yrotation
				JOINT RightForeFoot
				{
					OFFSET 0.00000 -3.74820 0.00000
					CHANNELS 3 Zrotation Xrotation Yrotation
					JOINT RightToeBase
					{
						OFFSET 0.00000 0.06325 14.43120
						CHANNELS 3 Zrotation Xrotation Yrotation
						End site
						{
							OFFSET 0.00000 0.00000 0.00000
						}
					}
				}
			}
		}
	}
	JOINT LeftUpLeg
	{
		OFFSET 9.98441 0.00000 0.00000
		CHANNELS 3 Zrotation Xrotation Yrotation
		JOINT LeftLeg
		{
			OFFSET 0.00000 -42.11800 0.00000
			CHANNELS 3 Zrotation Xrotation Yrotation
			JOINT LeftFoot
			{
				OFFSET 0.00000 -45.00070 0.00000
				CHANNELS 3 Zrotation Xrotation Yrotation
				JOINT LeftForeFoot
				{
					OFFSET 0.00000 -3.74824 0.00000
					CHANNELS 3 Zrotation Xrotation Yrotation
					JOINT LeftToeBase
					{
						OFFSET 0.00000 0.06325 14.43110
						CHANNELS 3 Zrotation Xrotation Yrotation
						End site
						{
							OFFSET 0.00000 0.00000 0.00000
						}
					}
				}
			}
		}
	}
}
MOTION
Frames: 4
Frame Time: 0.050000
0.04678437756399989 0.04847131929072468 -0.00016714170709446292 0.018306252596045083 0.04154048728792481 0.007267368716329648 -4.632235685488053 -0.7722340844052462 -0.4676618804947228 -0.9746171662762645 3.4918720485783696 0.3687377140955356 -1.4872871907896263 -2.3005078292429557 -0.5091586190798473 -0.7129956918459888 -0.07097650739627848 -0.8198002292851256 0.28780116832033104 12.501935955887456 -0.2100844185363297 0.35171290330311655 -0.08768089183825181 -2.8017475351219097 0.640313285908402 -15.150196675498766 -0.26184822676901215 -7.0564666303978365 2.4160293826825616 -12.468991320622505 58.52412988464681 14.860707700772458 29.529276611725837 5.8055149896873335 0.5661286458518741 102.30557004499073 20.623127302300613 -0.795515161527077 -4.040593038044441 4.504189217225019 -0.11250632316359162 -1.6040821691519296 -0.0334589528119006 0.04506761071561743 -56.25327978143432 -0.008362085399541832 0.025251884236878647 -56.27330387564602 -38.76721046432535 0.01960232226972607 0.008276861981077027 0.04896190554479499 -0.045392707752942074 0.047850259712005815 0.02488604803059304 0.009049248367658734 -0.042734041815739705 -36.73365696016133 0.009465190559754503 0.012823563085741273 0.0047723389292486686 0.019136494982289576 -0.005250505281579437 -0.0315540462449612 -0.03406644247856398 -0.0335251670503085 -19.77967014856621 0.003279941565298202 -0.03181797409755874 0.010243300552140452 0.026616750079649133 0.010256446514475678 -0.02635949637042465 0.04913054969046968 -0.0043130601859333005 24.045302288287537 -0.024060979036807848 -0.02931248499601089 28.900419409212017 0.013460277357531232 -0.00850407382515637 28.871360092360103 -0.04715612451192134 0.019637342651447145 7.110796330261464 1.6592864864800794 11.554603867334947 -63.413441860726394 22.65258925841416 -20.894971953499983 -44.59585243065952 5.432160111314873 -94.31046256705466 -11.425466943334174 -2.305515993811529 0.7963747933082466 -0.48526049537864796 0.058153266441810215 -8.092820092061611 -0.009191314354365203 -0.04059095872736473 44.56366317062878 -0.01979088207769671 0.025072100390470187 44.60819801529633 12.492124298113989 -0.034828922064183976 0.01745901623235257 -0.030907685209740302 -0.01206403205989611 0.04089545399292418 0.04081664709102696 -0.02566713321810436 -0.03345557024897647 11.06731255736847 0.028769715280360146 -0.031036375293323093 -0.00018393450979551504 -0.016030642557424566 -0.0016755299693595428 0.03965018340765561 -0.002757241170397901 0.03325529710835335 4.775043293641636 -0.029995210901082685 0.009008445524091444 0.04230154838741547 0.004102756843193099 0.021686329277593588 -0.03012658371444739 0.015280317168981952 -0.03636981441708577 -5.568481190958639 -0.0004466370340847591 0.03254489906904959 -6.706596825567138 0.027830226827611753 0.008370851277482588 -6.71613310912168 -0.03462602710454755 0.03545510124869849 0.048876052359299725 0.009427846660066378 -0.04726399172401734 8.040762276772567 3.5127621087408154 -19.17799452198077 -0.035032100511221305 10.38099919707687 0.03201726005227135 -5.596813603830586 -15.68445501884649 3.1846050912526005 0.015431761004988501 0.0275153345972653 -0.007444767108541179 0.021361063392336996 4.69760673123305 0.003722310519795766 12.436178761587218 -8.205259320302083 6.852886084906466 -0.007282991611223749 46.34706663961424 -0.023475067464684182 -4.3047171065114 -14.705749533931636 -3.8235441995505393 0.03881477733180835 0.009946052391984121 -0.025354541457588822 -0.013652406404891466 -10.739616717968833 0.03531628154728338 
0.02751893090560975 -0.021635815344062226 0.04202691341781059 0.033609902000567814 0.0013003461522906956 -0.01128247297538504 -4.613600779529694 -0.6997824857909889 -0.48430243889400126 -1.0075449870405344 3.502975834895385 0.3599948778570581 -1.489719989870198 -2.2733536303856594 -0.7139292009032345 -0.7356269656907232 -0.032896494238628726 -0.7694308635796399 0.21685455474230989 12.490856265448384 -0.2910661975196202 0.41322409258555326 -0.07670302838784906 -2.683504238995128 0.6348235680079727 -15.01068019118729 -0.23136018068087758 -6.890440626416584 2.361840810215906 -12.610459180150553 59.91985897492442 14.166725151749793 28.35702002143471 6.004813356265767 0.8308870210669413 101.20857918007272 21.28136949700578 -0.7060097362243296 -4.421213483538334 4.48961224448149 -0.11083038730212916 -1.5820246803089848 -0.034184026304884776 -0.007539139569458607 -56.24951310156485 -0.047482510944478376 0.017015566119269344 -56.24629609565816 -38.75217640902559 0.004998497848167533 0.015041451115526893 -0.034973541037352 -0.03637199276791054 0.005231400339545919 0.023610801138414628 0.0027797822306593707 0.046502800931446375 -36.698475871420605 0.01952403868394192 -0.04116401519888618 0.039186710417071446 -0.04489673315489315 -0.044402420597824906 -0.011685292619999763 -0.017893999019751746 -0.020209355747611034 -19.78566694666203 -0.0014907094446756225 -0.005527552639809808 0.01373648068104492 0.025943100802121043 -0.015977509191422896 0.00105096674300696 0.047763616888086974 0.016439817219382372 24.03790000228741 0.04058091948532011 -0.01456282761611611 28.89200552994952 0.0016812779109626572 0.04291498182708102 28.845077223483212 0.0013563776611123584 -0.04364931470910974 7.209881326168898 1.6124351659101175 11.502385990996194 -63.51549843809881 22.683514807908708 -21.101729599269113 -44.01937821817192 5.485409917079228 -93.81457940708762 -12.330930442217978 -2.947599395428055 1.3797132053249006 -0.44624951998420825 0.05227150695204783 -8.139683093588886 0.007591957954917727 0.027712215525409777 44.578148721334 -0.03193807807336289 -0.021186304249448503 44.60639322733912 12.419077649177881 0.035993186984507174 -0.048061406402306786 0.022417192849193166 0.047549185604198976 0.002367494031306891 0.02709634037102208 0.008296881814911105 0.01692012278064818 11.083059308755292 -0.03365429361914295 -0.005811142838326551 0.0238545096334282 -0.020987164979951383 -0.02345487024463578 0.04840479425877426 -0.03643813121232252 0.011124819150298438 4.765131219429874 0.011314050208092263 0.03761311116912613 0.04105057982830376 -0.04173593094438823 0.04410760936852115 -0.005005947971514091 -0.03495851594878701 0.03143944600442398 -5.5749065679691 -0.0025773958219364786 -0.015596493728173988 -6.681803505251035 0.047892162472237876 0.012592906705758085 -6.751217136192033 -0.0029495069061473657 0.0020802519937380593 -0.03151908639869207 -0.04565446795535218 0.0033271862145612886 8.028369894420473 3.5062842005364216 -19.177893682617363 0.0065324669540280265 10.438533512562882 0.016359154390440882 -5.6062199539795134 -15.617480911128332 3.2084244673075313 -0.010270741440208503 0.011803859750323425 -0.0051780549386657585 -0.038130828417486475 4.701562495345152 0.02319159337372013 12.457479707797914 -8.234034014746303 6.889769886607657 -0.013185201207346573 46.42443754517148 0.041724584563680486 -4.33423641503599 -14.749676334632737 -3.845318117251154 -0.024715506229735923 -0.0030182003532829038 -0.00627629347199585 0.04382515153511836 -10.790296859231015 -0.02858568038367469 
-0.010525555173226396 -0.020310133089908096 -0.010190671358052836 -0.043115896418334895 0.03291017315860906 -0.048298612700208104 -4.6446225365012035 -0.6386265316361752 -0.47204458686220635 -1.0028140158163297 3.3849736187353994 0.3577133159127978 -1.4229075483815905 -2.2443857514915293 -0.8330180991467192 -0.690529509778834 -0.058646936670975015 -0.7843577368514991 0.19438626071749496 12.503775234778304 -0.3616665807522835 0.36544575931582535 0.007066230977044794 -2.7477062646148824 0.6532579027840919 -14.981634384365442 -0.1941770297804792 -6.857492629747225 2.3620825936259884 -12.489579599671611 61.00010129274543 14.513978255632804 28.132513445968105 6.401984741417241 1.075744513261592 100.30972799342638 21.774765427410955 -0.7054510235538958 -4.772110659870874 4.49502550702973 -0.1266536377174346 -1.61240140404263 -0.007901532232219085 0.023761406010741615 -56.229084777230455 -0.03815219843510873 -0.006073101876786626 -56.197247836553316 -38.795812442111995 -0.02709258885432858 0.008475861611361596 -0.016352277832240823 -0.029340749176044543 0.04246365427344075 -0.03340615920962614 -0.047023162002329554 0.008510701477481291 -36.667652349419036 0.04859521927200454 0.007919347680709463 0.04656102578249943 -0.001446197141784589 -0.037884768531172675 -0.023322946770405334 -0.04756003361675143 -0.029791984476270593 -19.71319583976384 0.013983397247310176 -0.04218109109335349 0.030653036072347012 -0.014424423835892536 -0.03213111990711543 0.04011806164434011 -0.011591021736588313 -0.029502884047614166 24.056433124335094 -0.02639091363983274 -0.03186897943526383 28.8585163598166 -0.022213539405638413 -0.04452076200461766 28.8843429263414 0.033328853632150914 -0.028494256850879668 7.39439938963121 1.6959975460571048 11.381613861815788 -63.00046357355216 23.20252511582153 -22.53022399823281 -39.70607415017156 4.332832785778711 -93.25886692116748 -13.041128614173028 -3.8477898661599252 2.26496073001566 -0.4523934360813177 0.07282896648931779 -8.152445898280844 0.005361446574374923 -0.047883368274246024 44.608362188444865 -0.02835832026160794 -0.012236726997038476 44.5414057646433 12.502694975825765 -0.0437239850427054 -0.04086740474889426 -0.0024080680145168467 0.018567226780259197 0.01923984235025807 0.03650668700351611 0.03038824922997497 -0.005133102541668496 11.139275517661867 0.04876779643769998 0.02673068077081561 0.0340802182374314 0.030456541899935848 0.03487044707846367 -0.02196805857806591 -0.029954816191485465 -0.027383488311182005 4.741930792394432 0.015457626658151582 -0.022756819567349373 -0.009455146991584248 -0.0004948805588502544 -0.049267074618495 -0.0048850405890107085 0.0023733206721435795 0.01678913750000331 -5.639379920834255 -0.01575208872741035 -0.04086999950954987 -6.713417013879895 0.03853130587482251 -0.032959014465849625 -6.708488932462292 -0.03682639555791353 0.04495919692052549 -0.009239648100093421 -0.031750859782124954 -0.04204356727020534 8.04136504046484 3.5304069809368355 -19.223247808899984 -0.024965184785270596 10.433828252118738 -0.029413770192175098 -5.643333907544315 -15.640032387139627 3.177200607920622 -0.006855859818937897 0.04047949979167164 -0.01895747280938388 -0.03236471418772473 4.7249914591781055 0.027563048464147668 12.492492611632377 -8.258323246314465 6.889203736407312 0.03728318427488102 46.38923016787374 -0.022200987230666724 -4.306208195751326 -14.699804808001856 -3.8304121341678012 -0.03085754436753172 -0.029837007775560462 -0.024919294534507593 0.025724233215813543 -10.769243991080824 0.02247875746043251 
0.015383743407788567 0.033359982634419104 0.012703276071066997 0.04951975656966803 -0.026156486045072414 0.035259310027961774 -4.537955698042487 -0.5391906471414887 -0.4912846998300819 -0.9468240271746654 3.416819926012098 0.4051212299656491 -1.3841155362390147 -2.3004383127774894 -0.9366103845024399 -0.6637724188380993 -0.042888357648681735 -0.8236431170030031 0.21433366794421854 12.464733664444806 -0.4050105244550468 0.3995049346793562 0.10428735026381125 -2.9378158813322375 0.6352636733163446 -14.774161556962412 -0.2669669041733329 -6.7961855708667205 2.3175482377261702 -12.4102908281146 61.65134390773583 15.639823002337174 28.454570561552647 6.886719258741636 1.3076321937581936 99.65765488476669 22.067184996003906 -0.6191689139446057 -5.103662235264256 4.486433742297491 -0.16571695835153658 -1.5844392844447839 -0.033635993711217414 -0.0052320518155475355 -56.192152831765256 0.027711846100668656 -0.017330517709198367 -56.24611448341756 -38.72557209421005 0.029225153774965797 0.024572525231852566 -0.04843123467888057 -0.023098851694009218 0.007798246572622186 0.004515231625222128 0.03584699112185293 -0.013537593229843431 -36.67720262969549 0.004087638025099186 0.02357448783423224 -0.004778126433454984 -0.023673684325329042 0.017959911095740605 0.0034876388925835404 -0.03964210932067071 -0.0018577372414617993 -19.802954652105832 -0.031406644690165485 0.001008076549467388 0.007267191405090284 0.008501759710096996 -0.01839090138900493 -0.011837917315052729 -0.02829817431270167 -0.005733711754357521 24.076862135616583 0.005034346485807032 -0.001812420571338824 28.884110228855572 0.0035341908191772993 -0.026324068085772697 28.85314367831071 0.019356889032027307 -0.02752119852699179 7.724594553234923 1.7948277964385861 11.330095999478623 -62.16670882865546 23.80294185281472 -24.460838785967354 -33.96592729641629 2.734636457313342 -93.36238305380141 -13.640120795251839 -4.883337006803125 3.200636204161565 -0.432776746336814 0.07240766142081026 -8.154022604979676 0.013376734509757815 0.0193188617720259 44.55760700286372 -0.019005766814791738 -0.015194506502597752 44.57225213477673 12.474952391514062 -0.04221865218766962 -0.013518492081364313 0.008825426146052506 -0.023222925749527817 -0.007533060101167065 -0.032379886859072164 0.010211644097092933 -0.027963967175934273 11.094445230384393 0.008457046313271389 -0.015009953257045244 0.02133853222168491 0.019948291449440065 -0.030278494890951163 -0.006075156967812532 0.03729669240849936 -0.0011548422512033286 4.814201310054451 -0.011967085539111981 -0.04035677084542835 -0.03786276066735205 -0.022255654829736703 -0.005001235298377196 0.010593459036604282 0.03157397250199374 0.015078041854878767 -5.59637067399798 0.014904421969872345 0.0063279322652133345 -6.759538646813975 0.003317576160361231 0.009615003991022034 -6.693313219753779 -0.002334217228959549 -0.022596376152401395 -0.005353486515591388 0.03534995675764842 0.02931924178354368 8.04462026281732 3.4758991176696865 -19.234441697544884 0.00471637424235698 10.393230242250972 -0.017025857411226374 -5.660760463144549 -15.670832503070523 3.1486093279763265 -0.02543833844626934 -0.031002469200736116 0.00026127855327270845 0.03622513986180948 4.695688078969687 -0.04201895941173324 12.474104263153391 -8.207319043050669 6.890551291175059 -0.020935412104110627 46.363312433239024 0.004113877599868372 -4.294656563950524 -14.713349263961168 -3.8294980451005256 -0.04002582678820654 -0.04939898097508677 -0.005103953026954687 0.019090213773811725 -10.715959818751676 -0.004126906450736738 
